<svg xmlns="http://www.w3.org/2000/svg" viewBox="0 0 860 520" font-family="Segoe UI, Arial, sans-serif">
  <rect x="0" y="0" width="860" height="520" rx="14" fill="#f7f8fa" stroke="#d7dbe0" stroke-width="1.5"/>
  <text x="30" y="42" font-size="22" font-weight="700" fill="#1b2733">Inverse kinematics pipeline — Damped Least Squares</text>
  <text x="30" y="64" font-size="13" fill="#6a7580">RobotKinematics.SolveIK · Levenberg–Marquardt · finite-difference Jacobian</text>

  <defs>
    <marker id="arr" viewBox="0 0 10 10" refX="9" refY="5" markerWidth="7" markerHeight="7" orient="auto">
      <path d="M0,0 L10,5 L0,10 z" fill="#5b6b7a"/>
    </marker>
    <style>
      .box{fill:#ffffff;stroke:#c9d0d8;stroke-width:1.5;}
      .t{font-size:13px;fill:#22303c;font-weight:600;}
      .s{font-size:11px;fill:#6a7580;}
      .flow{stroke:#5b6b7a;stroke-width:1.8;fill:none;marker-end:url(#arr);}
    </style>
  </defs>

  <!-- input -->
  <rect class="box" x="30" y="96" width="200" height="72" rx="10" fill="#eef4ff" stroke="#7aa7e6"/>
  <text class="t" x="46" y="124">Target pose</text>
  <text class="s" x="46" y="144">X,Y,Z (mm) + Roll,Pitch,Yaw</text>
  <text class="s" x="46" y="160">tool tip, base frame</text>

  <!-- workspace check -->
  <rect class="box" x="30" y="210" width="200" height="72" rx="10" fill="#fff6e9" stroke="#e0a75a"/>
  <text class="t" x="46" y="238">IsInWorkspace</text>
  <text class="s" x="46" y="258">radius &#8804; 900, Z &#8712; [150,1450]</text>
  <text class="s" x="46" y="274">distance to axis 2 &#8804; 900</text>

  <!-- seeds -->
  <rect class="box" x="330" y="96" width="220" height="86" rx="10"/>
  <text class="t" x="346" y="122">Multi-start seeds (9)</text>
  <text class="s" x="346" y="142">current &#183; Home &#183; Zero</text>
  <text class="s" x="346" y="158">+ 6 random within joint</text>
  <text class="s" x="346" y="174">limits &#8594; escape singularities</text>

  <!-- LM loop -->
  <rect class="box" x="330" y="210" width="220" height="150" rx="10" fill="#fdeef1" stroke="#e4708a"/>
  <text class="t" x="346" y="236">LM loop (&#8804; 200)</text>
  <text class="s" x="346" y="258">1. internal FK (anchor pose)</text>
  <text class="s" x="346" y="276">2. pos + rot (axis-angle) error</text>
  <text class="s" x="346" y="294">3. 6&#215;6 Jacobian, finite diff</text>
  <text class="s" x="346" y="312">4. (JJ&#7488;+&#955;&#178;I)y=e, &#948;=J&#7488;y</text>
  <text class="s" x="346" y="330">5. adaptive &#955; (decrease/increase)</text>
  <text class="s" x="346" y="348">tolerance: 1 mm / 1&#176;</text>

  <!-- select best -->
  <rect class="box" x="640" y="96" width="190" height="86" rx="10" fill="#eef9f0" stroke="#66b17a"/>
  <text class="t" x="656" y="122">Select best solution</text>
  <text class="s" x="656" y="142">converged &amp; closest to</text>
  <text class="s" x="656" y="158">current pose; error-based</text>
  <text class="s" x="656" y="174">fallback if none converge</text>

  <!-- drive -->
  <rect class="box" x="640" y="210" width="190" height="72" rx="10"/>
  <text class="t" x="656" y="238">ArticulationBody</text>
  <text class="s" x="656" y="258">PD xDrive (stiffness/damping)</text>
  <text class="s" x="656" y="274">smoothstep interpolation 1.5 s</text>

  <!-- verify -->
  <rect class="box" x="640" y="310" width="190" height="80" rx="10" fill="#eef4ff" stroke="#7aa7e6"/>
  <text class="t" x="656" y="338">Real verification</text>
  <text class="s" x="656" y="358">read actual pose from physics</text>
  <text class="s" x="656" y="374">compare, report mm/&#176; error</text>

  <!-- flows -->
  <path class="flow" d="M130,168 L130,210"/>
  <path class="flow" d="M230,246 L330,246 L330,210"/>
  <path class="flow" d="M440,182 L440,210"/>
  <path class="flow" d="M550,285 L640,139"/>
  <path class="flow" d="M735,182 L735,210"/>
  <path class="flow" d="M735,282 L735,310"/>

  <text x="250" y="240" class="s" fill="#e0a75a" font-weight="700">valid</text>
</svg>
