<svg xmlns="http://www.w3.org/2000/svg" viewBox="0 0 860 520" font-family="Segoe UI, Arial, sans-serif">
  <rect x="0" y="0" width="860" height="520" rx="14" fill="#f7f8fa" stroke="#d7dbe0" stroke-width="1.5"/>
  <text x="30" y="42" font-size="22" font-weight="700" fill="#1b2733">Pipeline động học nghịch — Damped Least Squares</text>
  <text x="30" y="64" font-size="13" fill="#6a7580">RobotKinematics.SolveIK · Levenberg–Marquardt · Jacobian sai phân hữu hạn</text>

  <defs>
    <marker id="arr" viewBox="0 0 10 10" refX="9" refY="5" markerWidth="7" markerHeight="7" orient="auto">
      <path d="M0,0 L10,5 L0,10 z" fill="#5b6b7a"/>
    </marker>
    <style>
      .box{fill:#ffffff;stroke:#c9d0d8;stroke-width:1.5;rx:10;}
      .t{font-size:13px;fill:#22303c;font-weight:600;}
      .s{font-size:11px;fill:#6a7580;}
      .flow{stroke:#5b6b7a;stroke-width:1.8;fill:none;marker-end:url(#arr);}
    </style>
  </defs>

  <!-- input -->
  <rect class="box" x="30" y="96" width="200" height="72" rx="10" fill="#eef4ff" stroke="#7aa7e6"/>
  <text class="t" x="46" y="124">Target pose</text>
  <text class="s" x="46" y="144">X,Y,Z (mm) + Roll,Pitch,Yaw</text>
  <text class="s" x="46" y="160">mũi tool, hệ base_link</text>

  <!-- workspace check -->
  <rect class="box" x="30" y="210" width="200" height="72" rx="10" fill="#fff6e9" stroke="#e0a75a"/>
  <text class="t" x="46" y="238">IsInWorkspace</text>
  <text class="s" x="46" y="258">bán kính ≤ 900, Z∈[150,1450]</text>
  <text class="s" x="46" y="274">khoảng cách tới khớp 1 ≤ 900</text>

  <!-- seeds -->
  <rect class="box" x="330" y="96" width="220" height="86" rx="10">
  </rect>
  <text class="t" x="346" y="122">Đa điểm xuất phát (9 seed)</text>
  <text class="s" x="346" y="142">góc hiện tại · Home · Zero</text>
  <text class="s" x="346" y="158">+ 6 seed ngẫu nhiên trong</text>
  <text class="s" x="346" y="174">giới hạn khớp → tránh kỳ dị</text>

  <!-- LM loop -->
  <rect class="box" x="330" y="210" width="220" height="150" rx="10" fill="#fdeef1" stroke="#e4708a"/>
  <text class="t" x="346" y="236">Vòng lặp LM (≤200)</text>
  <text class="s" x="346" y="258">1. FK nội bộ (anchor rest-pose)</text>
  <text class="s" x="346" y="276">2. sai số pos + rot(axis-angle)</text>
  <text class="s" x="346" y="294">3. Jacobian 6×6 finite-diff</text>
  <text class="s" x="346" y="312">4. (JJᵀ+λ²I)y=e, δ=Jᵀy</text>
  <text class="s" x="346" y="330">5. λ thích nghi (giảm/tăng)</text>
  <text class="s" x="346" y="348">tol: 1 mm / 1°</text>

  <!-- select best -->
  <rect class="box" x="640" y="96" width="190" height="86" rx="10" fill="#eef9f0" stroke="#66b17a"/>
  <text class="t" x="656" y="122">Chọn nghiệm tốt nhất</text>
  <text class="s" x="656" y="142">hội tụ + gần góc hiện</text>
  <text class="s" x="656" y="158">tại nhất; fallback theo</text>
  <text class="s" x="656" y="174">sai số nếu không hội tụ</text>

  <!-- drive -->
  <rect class="box" x="640" y="210" width="190" height="72" rx="10">
  </rect>
  <text class="t" x="656" y="238">ArticulationBody</text>
  <text class="s" x="656" y="258">PD xDrive (stiffness/damping)</text>
  <text class="s" x="656" y="274">nội suy smoothstep 1.5 s</text>

  <!-- verify -->
  <rect class="box" x="640" y="310" width="190" height="80" rx="10" fill="#eef4ff" stroke="#7aa7e6"/>
  <text class="t" x="656" y="338">Xác minh thật</text>
  <text class="s" x="656" y="358">đọc pose thực từ physics</text>
  <text class="s" x="656" y="374">so target, báo sai số mm/°</text>

  <!-- flows -->
  <path class="flow" d="M130,168 L130,210"/>
  <path class="flow" d="M230,246 L330,246 L330,210"/>
  <path class="flow" d="M440,182 L440,210"/>
  <path class="flow" d="M550,285 L640,139"/>
  <path class="flow" d="M735,182 L735,210"/>
  <path class="flow" d="M735,282 L735,310"/>

  <text x="250" y="240" class="s" fill="#e0a75a" font-weight="700">hợp lệ</text>
</svg>
